{"title":"Ambush.Bay.1966.DVDRip.XviD-CG","uid":11349567,"size":1363703062,"categoryP":"video","categoryS":"movies","magnet":"?xt=urn:btih:69e32523ed69d9a88c89b0282d161dd719ecaecc&amp;dn=Ambush.Bay.1966.DVDRip.XviD-CG&amp;tr=udp%3A%2F%2Ftracker.openbittorrent.com%3A80&amp;tr=udp%3A%2F%2Fopen.demonii.com%3A1337&amp;tr=udp%3A%2F%2Ftracker.coppersurfer.tk%3A6969&amp;tr=udp%3A%2F%2Fexodus.desync.com%3A6969","seeders":1,"leechers":2,"uploader":"TvTeam","files":4,"time":1414888044,"description":" &lt;a href=&quot;http://www.torrenting.com&quot; rel=&quot;nofollow&quot; target=&quot;_NEW&quot;&gt;http://www.torrenting.com&lt;/a&gt;\n\nSign up is OPEN - for time being. Come and have fun.\n\n\n------------------------------------------------------------------------Ambush.Bay.1966.DVDRIP.XviD-CG\n &lt;a href=&quot;\nhttp://www.imdb.com/title/tt0060098&quot; rel=&quot;nofollow&quot; target=&quot;_NEW&quot;&gt;\nhttp://www.imdb.com/title/tt0060098&lt;/a&gt;\n\nVideo: XviD @ 1463kbps\n\nAudio: DD 2.0 @ 192kbps\n\n\n\n\nFormat                                   : AVI\nFormat/Info                              : Audio Video Interleave\nFile size                                : 1.27 GiB\nDuration                                 : 1h 49mn\nOverall bit rate                         : 1 662 Kbps\nWriting application                      : VirtualDubMod 1.5.4.1 (build 2178/release)\nWriting library                          : VirtualDubMod build 2178/release\n\nVideo\nID                                       : 0\nFormat                                   : MPEG-4 Visual\nFormat profile                           : Advanced Simple@L5\nFormat settings, BVOP                    : No\nFormat settings, QPel                    : No\nFormat settings, GMC                     : No warppoints\nFormat settings, Matrix                  : Custom\nCodec ID                                 : XVID\nCodec ID/Hint                            : XviD\nDuration                                 : 1h 49mn\nBit rate                                 : 1 463 Kbps\nWidth                                    : 640 pixels\nHeight                                   : 352 pixels\nDisplay aspect ratio                     : 16:9\nFrame rate                               : 23.976 fps\nColor space                              : YUV\nChroma subsampling                       : 4:2:0\nBit depth                                : 8 bits\nScan type                                : Progressive\nCompression mode                         : Lossy\nBits/(Pixel*Frame)                       : 0.271\nStream size                              : 1.12 GiB (88%)\nWriting library                          : XviD 1.2.1 (UTC 2008-12-04)\n\nAudio\nID                                       : 1\nFormat                                   : AC-3\nFormat/Info                              : Audio Coding 3\nMode extension                           : CM (complete main)\nFormat settings, Endianness              : Big\nCodec ID                                 : 2000\nDuration                                 : 1h 49mn\nBit rate mode                            : Constant\nBit rate                                 : 192 Kbps\nChannel(s)                               : 2 channels\nChannel positions                        : Front: L R\nSampling rate                            : 48.0 KHz\nBit depth                                : 16 bits\nCompression mode                         : Lossy\nStream size                              : 150 MiB (12%)\nAlignment                                : Split accross interleaves\nInterleave, duration                     : 96 ms (2.30 video frames)\nInterleave, preload duration             : 96 ms\nLanguage                                 : English","torrent":{"xt":"urn:btih:69e32523ed69d9a88c89b0282d161dd719ecaecc","amp;dn":"Ambush.Bay.1966.DVDRip.XviD-CG","amp;tr":["udp%3A%2F%2Ftracker.openbittorrent.com%3A80","udp%3A%2F%2Fopen.demonii.com%3A1337","udp%3A%2F%2Ftracker.coppersurfer.tk%3A6969","udp%3A%2F%2Fexodus.desync.com%3A6969"],"infoHash":"69e32523ed69d9a88c89b0282d161dd719ecaecc","infoHashBuffer":{"type":"Buffer","data":[105,227,37,35,237,105,217,168,140,137,176,40,45,22,29,215,25,236,174,204]},"announce":[],"urlList":[]}}